<svg id="svg" xmlns="http://www.w3.org/2000/svg" xmlns:xlink="http://www.w3.org/1999/xlink" width="400" height="400"
     viewBox="0, 0, 400,400" version="1.1">
    <g id="svgg">
        <path id="path0"
              d="M335.493 31.618 C 335.034 32.077,331.511 32.634,327.663 32.855 C 323.815 33.077,317.667 33.547,314.000 33.900 C 310.333 34.252,306.833 34.569,306.221 34.604 C 305.609 34.638,308.594 38.637,312.855 43.491 L 320.602 52.315 305.291 67.157 C 296.870 75.321,282.581 89.950,273.537 99.667 C 264.493 109.383,256.398 117.367,255.547 117.408 C 254.696 117.449,251.000 121.094,247.333 125.507 C 243.667 129.920,230.767 143.357,218.667 155.368 C 206.567 167.378,192.057 182.205,186.422 188.317 C 180.788 194.428,175.088 199.487,173.755 199.558 C 165.988 199.973,155.840 201.272,150.247 202.565 C 146.716 203.382,143.266 203.703,142.580 203.280 C 141.894 202.856,140.619 202.950,139.747 203.490 C 138.874 204.029,135.724 204.681,132.747 204.939 C 123.455 205.743,122.048 205.987,120.333 207.088 C 119.364 207.710,118.667 207.547,118.667 206.698 C 118.667 205.663,117.909 205.645,116.055 206.637 C 114.618 207.406,110.868 208.268,107.721 208.552 C 104.575 208.836,102.000 209.202,102.000 209.365 C 102.000 209.529,99.600 209.877,96.667 210.139 C 91.284 210.621,87.734 211.106,78.000 212.692 C 75.067 213.170,70.867 213.744,68.667 213.968 C 66.467 214.191,64.367 214.509,64.000 214.674 C 63.633 214.839,62.433 214.907,61.333 214.825 C 57.217 214.520,55.612 216.846,56.537 221.775 C 57.386 226.302,57.642 226.490,62.379 226.057 C 65.104 225.808,67.333 225.496,67.333 225.364 C 67.333 225.231,69.733 224.870,72.667 224.560 C 75.600 224.251,79.800 223.720,82.000 223.381 C 92.940 221.695,97.000 221.101,100.667 220.648 C 102.867 220.376,107.067 219.762,110.000 219.284 C 112.933 218.805,117.433 218.254,120.000 218.060 C 122.567 217.865,124.667 217.567,124.667 217.397 C 124.667 217.227,126.767 216.937,129.333 216.751 C 131.900 216.566,135.021 215.968,136.269 215.422 C 137.518 214.877,139.168 214.819,139.936 215.294 C 140.705 215.769,142.023 215.731,142.866 215.210 C 144.618 214.128,151.961 213.121,158.333 213.090 C 160.717 213.079,162.667 212.630,162.667 212.092 C 162.667 211.554,164.917 211.013,167.667 210.888 C 170.417 210.764,174.047 210.535,175.733 210.379 C 178.566 210.117,258.667 132.087,258.667 129.590 C 258.667 129.071,274.271 113.074,293.343 94.042 L 328.019 59.436 335.676 67.013 C 343.100 74.359,343.337 74.479,343.444 70.962 C 343.505 68.966,343.961 64.033,344.457 60.000 C 344.953 55.967,345.637 49.667,345.977 46.000 C 346.317 42.333,346.886 38.128,347.242 36.656 C 348.315 32.215,338.923 28.188,335.493 31.618 M280.886 128.883 L 245.333 164.433 245.333 262.905 L 245.333 361.376 281.667 361.021 L 318.000 360.667 318.340 227.000 C 318.527 153.483,318.175 93.333,317.559 93.333 C 316.943 93.333,300.440 109.331,280.886 128.883 M221.333 185.207 C 215.370 192.677,207.532 201.858,198.209 212.294 C 187.755 223.995,186.431 224.784,178.000 224.333 C 176.533 224.254,174.433 224.531,173.333 224.948 C 171.610 225.601,161.882 226.710,154.333 227.113 C 152.144 227.230,152.000 231.367,152.000 294.286 L 152.000 361.333 188.000 361.333 L 224.000 361.333 224.000 272.000 C 224.000 222.867,223.850 182.675,223.667 182.684 C 223.483 182.694,222.433 183.829,221.333 185.207 M125.212 231.232 C 124.581 231.863,116.816 232.754,100.667 234.047 C 97.000 234.341,91.300 234.925,88.000 235.346 C 84.700 235.767,78.700 236.378,74.667 236.704 C 70.633 237.031,64.933 237.536,62.000 237.828 L 56.667 238.358 56.320 299.846 L 55.973 361.333 93.999 361.333 L 132.025 361.333 131.679 296.333 C 131.337 232.043,131.304 231.329,128.612 230.944 C 127.115 230.729,125.585 230.859,125.212 231.232 "
              stroke="none" fill="#AAA" fill-rule="evenodd"></path>
    </g>
</svg>
